REM DIRINDEX 1\2,1\3,1\4,1\5\6,1\5\7,1\8
REM DIRNAME cjc115,folder01,folder02,folder03,folder04,folder05,folder06,folder07
TITLE ""
FILE "098 Åy098ÅzUnit6 (1105 collision_1116 warranty).mp3" MP3
  TRACK 01 AUDIO
    TITLE "0:"
    INDEX 01 00:00:00
  TRACK 02 AUDIO
    TITLE "2:cjc115_3838"
    INDEX 01 00:00:07
  TRACK 03 AUDIO
    TITLE "0:"
    INDEX 01 00:01:26
  TRACK 04 AUDIO
    TITLE "3:cjc115_3839"
    INDEX 01 00:01:36
  TRACK 05 AUDIO
    TITLE "0:"
    INDEX 01 00:02:57
  TRACK 06 AUDIO
    TITLE "4:cjc115_3840"
    INDEX 01 00:02:63
  TRACK 07 AUDIO
    TITLE "0:"
    INDEX 01 00:05:69
  TRACK 08 AUDIO
    TITLE "2:cjc115_3841"
    INDEX 01 00:07:03
  TRACK 09 AUDIO
    TITLE "0:"
    INDEX 01 00:08:28
  TRACK 10 AUDIO
    TITLE "3:cjc115_3842"
    INDEX 01 00:08:38
  TRACK 11 AUDIO
    TITLE "0:"
    INDEX 01 00:11:01
  TRACK 12 AUDIO
    TITLE "4:cjc115_3843"
    INDEX 01 00:11:07
  TRACK 13 AUDIO
    TITLE "0:"
    INDEX 01 00:16:36
  TRACK 14 AUDIO
    TITLE "2:cjc115_3844"
    INDEX 01 00:17:47
  TRACK 15 AUDIO
    TITLE "0:"
    INDEX 01 00:18:68
  TRACK 16 AUDIO
    TITLE "3:cjc115_3845"
    INDEX 01 00:19:03
  TRACK 17 AUDIO
    TITLE "0:"
    INDEX 01 00:22:23
  TRACK 18 AUDIO
    TITLE "4:cjc115_3846"
    INDEX 01 00:22:30
  TRACK 19 AUDIO
    TITLE "0:"
    INDEX 01 00:27:36
  TRACK 20 AUDIO
    TITLE "2:cjc115_3847"
    INDEX 01 00:28:45
  TRACK 21 AUDIO
    TITLE "0:"
    INDEX 01 00:29:64
  TRACK 22 AUDIO
    TITLE "3:cjc115_3848"
    INDEX 01 00:30:01
  TRACK 23 AUDIO
    TITLE "0:"
    INDEX 01 00:33:11
  TRACK 24 AUDIO
    TITLE "4:cjc115_3849"
    INDEX 01 00:33:21
  TRACK 25 AUDIO
    TITLE "0:"
    INDEX 01 00:36:58
  TRACK 26 AUDIO
    TITLE "2:cjc115_3850"
    INDEX 01 00:37:67
  TRACK 27 AUDIO
    TITLE "0:"
    INDEX 01 00:39:11
  TRACK 28 AUDIO
    TITLE "3:cjc115_3851"
    INDEX 01 00:39:23
  TRACK 29 AUDIO
    TITLE "0:"
    INDEX 01 00:43:21
  TRACK 30 AUDIO
    TITLE "4:cjc115_3852"
    INDEX 01 00:43:31
  TRACK 31 AUDIO
    TITLE "0:"
    INDEX 01 00:46:15
  TRACK 32 AUDIO
    TITLE "2:cjc115_3853"
    INDEX 01 00:47:27
  TRACK 33 AUDIO
    TITLE "0:"
    INDEX 01 00:48:40
  TRACK 34 AUDIO
    TITLE "3:cjc115_3854"
    INDEX 01 00:48:53
  TRACK 35 AUDIO
    TITLE "0:"
    INDEX 01 00:51:18
  TRACK 36 AUDIO
    TITLE "4:cjc115_3855"
    INDEX 01 00:51:24
  TRACK 37 AUDIO
    TITLE "0:"
    INDEX 01 00:55:22
  TRACK 38 AUDIO
    TITLE "2:cjc115_3856"
    INDEX 01 00:56:31
  TRACK 39 AUDIO
    TITLE "0:"
    INDEX 01 00:57:54
  TRACK 40 AUDIO
    TITLE "3:cjc115_3857"
    INDEX 01 00:57:66
  TRACK 41 AUDIO
    TITLE "0:"
    INDEX 01 00:59:71
  TRACK 42 AUDIO
    TITLE "4:cjc115_3858"
    INDEX 01 01:00:02
  TRACK 43 AUDIO
    TITLE "0:"
    INDEX 01 01:04:03
  TRACK 44 AUDIO
    TITLE "2:cjc115_3859"
    INDEX 01 01:05:11
  TRACK 45 AUDIO
    TITLE "0:"
    INDEX 01 01:06:30
  TRACK 46 AUDIO
    TITLE "3:cjc115_3860"
    INDEX 01 01:06:43
  TRACK 47 AUDIO
    TITLE "0:"
    INDEX 01 01:08:72
  TRACK 48 AUDIO
    TITLE "4:cjc115_3861"
    INDEX 01 01:09:05
  TRACK 49 AUDIO
    TITLE "0:"
    INDEX 01 01:13:69
  TRACK 50 AUDIO
    TITLE "2:cjc115_3862"
    INDEX 01 01:15:03
  TRACK 51 AUDIO
    TITLE "0:"
    INDEX 01 01:16:14
  TRACK 52 AUDIO
    TITLE "3:cjc115_3863"
    INDEX 01 01:16:26
  TRACK 53 AUDIO
    TITLE "0:"
    INDEX 01 01:17:18
  TRACK 54 AUDIO
    TITLE "4:cjc115_3864"
    INDEX 01 01:17:22
  TRACK 55 AUDIO
    TITLE "0:"
    INDEX 01 01:21:21
  TRACK 56 AUDIO
    TITLE "2:cjc115_3865"
    INDEX 01 01:22:27
  TRACK 57 AUDIO
    TITLE "0:"
    INDEX 01 01:23:58
  TRACK 58 AUDIO
    TITLE "3:cjc115_3866"
    INDEX 01 01:23:71
  TRACK 59 AUDIO
    TITLE "0:"
    INDEX 01 01:25:47
  TRACK 60 AUDIO
    TITLE "4:cjc115_3867"
    INDEX 01 01:25:57
  TRACK 61 AUDIO
    TITLE "0:"
    INDEX 01 01:29:17
  TRACK 62 AUDIO
    TITLE "2:cjc115_3868"
    INDEX 01 01:30:26
  TRACK 63 AUDIO
    TITLE "0:"
    INDEX 01 01:31:34
  TRACK 64 AUDIO
    TITLE "3:cjc115_3869"
    INDEX 01 01:31:49
  TRACK 65 AUDIO
    TITLE "0:"
    INDEX 01 01:34:34
  TRACK 66 AUDIO
    TITLE "4:cjc115_3870"
    INDEX 01 01:34:38
  TRACK 67 AUDIO
    TITLE "0:"
    INDEX 01 01:38:63
  TRACK 68 AUDIO
    TITLE "2:cjc115_3871"
    INDEX 01 01:39:70
  TRACK 69 AUDIO
    TITLE "0:"
    INDEX 01 01:41:14
  TRACK 70 AUDIO
    TITLE "3:cjc115_3872"
    INDEX 01 01:41:28
  TRACK 71 AUDIO
    TITLE "0:"
    INDEX 01 01:42:45
  TRACK 72 AUDIO
    TITLE "4:cjc115_3873"
    INDEX 01 01:42:51
  TRACK 73 AUDIO
    TITLE "0:"
    INDEX 01 01:46:45
